<?xml version="1.0" encoding="UTF-8"?>
<svg xmlns="http://www.w3.org/2000/svg" xmlns:xlink="http://www.w3.org/1999/xlink" width="196px" height="30px" viewBox="0 0 193 30" version="1.1">
<g id="surface1">
<path style=" stroke:none;fill-rule:nonzero;fill:rgb(0%,0%,0%);fill-opacity:1;" d="M 120.746094 17.675781 C 120.902344 19.695312 122.457031 21.027344 124.75 21.027344 C 126.761719 21.027344 128.195312 20.097656 128.195312 18.464844 C 128.195312 16.605469 126.359375 16.21875 124.085938 15.832031 C 121.671875 15.429688 119.1875 14.640625 119.1875 11.710938 C 119.1875 9.164062 121.269531 7.445312 124.296875 7.445312 C 127.636719 7.445312 129.679688 9.304688 129.855469 12.007812 L 127.933594 12.007812 C 127.722656 10.269531 126.324219 9.128906 124.296875 9.128906 C 122.355469 9.128906 121.042969 9.988281 121.042969 11.605469 C 121.042969 13.410156 122.859375 13.761719 125.097656 14.167969 C 127.53125 14.570312 130.03125 15.394531 130.03125 18.308594 C 130.03125 20.90625 127.84375 22.730469 124.695312 22.730469 C 121.042969 22.730469 118.910156 20.640625 118.785156 17.695312 C 118.820312 17.675781 120.746094 17.675781 120.746094 17.675781 Z M 120.746094 17.675781 "/>
<path style=" stroke:none;fill-rule:nonzero;fill:rgb(0%,0%,0%);fill-opacity:1;" d="M 131.34375 17.113281 C 131.34375 13.796875 133.441406 11.515625 136.519531 11.515625 C 139.597656 11.515625 141.605469 13.464844 141.695312 16.710938 C 141.695312 16.9375 141.675781 17.203125 141.660156 17.464844 L 133.195312 17.464844 L 133.195312 17.625 C 133.265625 19.710938 134.558594 21.167969 136.640625 21.167969 C 138.179688 21.167969 139.386719 20.34375 139.734375 18.941406 L 141.519531 18.941406 C 141.082031 21.132812 139.296875 22.730469 136.78125 22.730469 C 133.476562 22.730469 131.34375 20.464844 131.34375 17.113281 Z M 139.804688 16.007812 C 139.628906 14.113281 138.355469 13.0625 136.535156 13.0625 C 134.925781 13.0625 133.457031 14.21875 133.28125 16.007812 Z M 139.804688 16.007812 "/>
<path style=" stroke:none;fill-rule:nonzero;fill:rgb(0%,0%,0%);fill-opacity:1;" d="M 143.6875 7.566406 L 145.4375 7.566406 L 145.4375 17.464844 L 150.910156 11.65625 L 153.058594 11.65625 L 148.8125 16.183594 L 153.359375 22.605469 L 151.257812 22.605469 L 147.640625 17.464844 L 145.4375 19.746094 L 145.4375 22.625 L 143.6875 22.625 Z M 143.6875 7.566406 "/>
<path style=" stroke:none;fill-rule:nonzero;fill:rgb(0%,0%,0%);fill-opacity:1;" d="M 154.300781 8.585938 L 156.050781 8.585938 L 156.050781 11.65625 L 158.8125 11.65625 L 158.8125 13.269531 L 156.050781 13.269531 L 156.050781 19.730469 C 156.050781 20.660156 156.367188 20.992188 157.238281 20.992188 L 159.144531 20.992188 L 159.144531 22.605469 L 157.136719 22.605469 C 155.035156 22.605469 154.285156 21.675781 154.285156 19.746094 Z M 154.300781 8.585938 "/>
<path style=" stroke:none;fill-rule:nonzero;fill:rgb(0%,0%,0%);fill-opacity:1;" d="M 160.003906 17.113281 C 160.003906 13.796875 162.222656 11.515625 165.40625 11.515625 C 168.589844 11.515625 170.808594 13.796875 170.808594 17.113281 C 170.808594 20.429688 168.589844 22.710938 165.40625 22.710938 C 162.222656 22.710938 160.003906 20.449219 160.003906 17.113281 Z M 169.027344 17.113281 C 169.027344 14.78125 167.574219 13.078125 165.40625 13.078125 C 163.238281 13.078125 161.785156 14.78125 161.785156 17.113281 C 161.785156 19.449219 163.238281 21.152344 165.40625 21.152344 C 167.574219 21.152344 169.027344 19.464844 169.027344 17.113281 Z M 163.464844 7.726562 C 164.128906 7.726562 164.601562 8.199219 164.601562 8.847656 C 164.601562 9.464844 164.128906 9.9375 163.464844 9.9375 C 162.816406 9.9375 162.347656 9.464844 162.347656 8.847656 C 162.363281 8.199219 162.835938 7.726562 163.464844 7.726562 Z M 167.363281 7.726562 C 168.011719 7.726562 168.484375 8.199219 168.484375 8.847656 C 168.484375 9.464844 168.011719 9.9375 167.363281 9.9375 C 166.753906 9.9375 166.226562 9.464844 166.226562 8.847656 C 166.226562 8.199219 166.734375 7.726562 167.363281 7.726562 Z M 167.363281 7.726562 "/>
<path style=" stroke:none;fill-rule:nonzero;fill:rgb(0%,0%,0%);fill-opacity:1;" d="M 178.382812 11.65625 L 178.382812 13.359375 L 177.507812 13.359375 C 175.214844 13.359375 174.605469 15.273438 174.605469 17.007812 L 174.605469 22.589844 L 172.855469 22.589844 L 172.855469 11.65625 L 174.375 11.65625 L 174.605469 13.304688 C 175.109375 12.464844 175.949219 11.65625 177.890625 11.65625 Z M 178.382812 11.65625 "/>
<path style=" stroke:none;fill-rule:nonzero;fill:rgb(0%,0%,0%);fill-opacity:1;" d="M 178.886719 17.113281 C 178.886719 13.796875 180.988281 11.515625 184.0625 11.515625 C 187.140625 11.515625 189.152344 13.464844 189.242188 16.710938 C 189.242188 16.9375 189.222656 17.203125 189.207031 17.464844 L 180.742188 17.464844 L 180.742188 17.625 C 180.8125 19.710938 182.105469 21.167969 184.1875 21.167969 C 185.726562 21.167969 186.933594 20.34375 187.28125 18.941406 L 189.066406 18.941406 C 188.644531 21.132812 186.84375 22.730469 184.328125 22.730469 C 181.023438 22.730469 178.886719 20.464844 178.886719 17.113281 Z M 187.351562 16.007812 C 187.175781 14.113281 185.902344 13.0625 184.082031 13.0625 C 182.472656 13.0625 181.003906 14.21875 180.828125 16.007812 Z M 187.351562 16.007812 "/>
<path style=" stroke:none;fill-rule:nonzero;fill:rgb(0%,0%,0%);fill-opacity:1;" d="M 191.25 7.566406 L 193 7.566406 L 193 22.589844 L 191.25 22.589844 Z M 191.25 7.566406 "/>
<path style=" stroke:none;fill-rule:nonzero;fill:rgb(0%,0%,0%);fill-opacity:1;" d="M 36.425781 22.554688 L 41.933594 7.445312 L 45.816406 7.445312 L 51.269531 22.554688 L 47.808594 22.554688 L 46.65625 19.253906 L 40.917969 19.253906 L 39.765625 22.554688 Z M 41.777344 16.640625 L 45.761719 16.640625 L 43.769531 10.902344 Z M 41.777344 16.640625 "/>
<path style=" stroke:none;fill-rule:nonzero;fill:rgb(0%,0%,0%);fill-opacity:1;" d="M 63.179688 16.394531 L 63.179688 22.554688 L 60.152344 22.554688 L 60.152344 16.710938 C 60.152344 14.832031 59.4375 13.832031 57.914062 13.832031 C 56.34375 13.832031 55.449219 14.957031 55.449219 16.867188 L 55.449219 22.539062 L 52.425781 22.539062 L 52.425781 11.464844 L 55.066406 11.464844 L 55.34375 12.851562 C 56.0625 11.992188 57.058594 11.339844 58.773438 11.339844 C 61.152344 11.324219 63.179688 12.605469 63.179688 16.394531 Z M 63.179688 16.394531 "/>
<path style=" stroke:none;fill-rule:nonzero;fill:rgb(0%,0%,0%);fill-opacity:1;" d="M 64.929688 8.359375 L 67.953125 8.359375 L 67.953125 11.464844 L 70.472656 11.464844 L 70.472656 14.027344 L 67.953125 14.027344 L 67.953125 18.886719 C 67.953125 19.660156 68.25 19.992188 69.019531 19.992188 L 70.59375 19.992188 L 70.59375 22.554688 L 68.074219 22.554688 C 65.960938 22.554688 64.910156 21.5 64.910156 19.378906 L 64.910156 8.359375 Z M 64.929688 8.359375 "/>
<path style=" stroke:none;fill-rule:nonzero;fill:rgb(0%,0%,0%);fill-opacity:1;" d="M 80.230469 11.464844 L 82.886719 11.464844 L 82.886719 22.554688 L 80.195312 22.554688 L 79.929688 20.992188 C 79.195312 21.921875 78.09375 22.660156 76.539062 22.660156 C 73.566406 22.675781 71.398438 20.5 71.398438 16.992188 C 71.398438 13.550781 73.566406 11.324219 76.523438 11.324219 C 78.09375 11.324219 79.214844 11.992188 79.914062 12.9375 Z M 79.894531 17.027344 C 79.894531 15.132812 78.863281 13.816406 77.203125 13.816406 C 75.542969 13.816406 74.492188 15.132812 74.492188 17.027344 C 74.492188 18.90625 75.542969 20.203125 77.203125 20.203125 C 78.863281 20.203125 79.894531 18.90625 79.894531 17.027344 Z M 79.894531 17.027344 "/>
<path style=" stroke:none;fill-rule:nonzero;fill:rgb(0%,0%,0%);fill-opacity:1;" d="M 85.003906 7.445312 L 88.027344 7.445312 L 88.027344 22.554688 L 85.003906 22.554688 Z M 85.003906 7.445312 "/>
<path style=" stroke:none;fill-rule:nonzero;fill:rgb(0%,0%,0%);fill-opacity:1;" d="M 97.523438 11.464844 L 100.546875 11.464844 L 100.546875 22.34375 C 100.546875 24.957031 98.972656 27.011719 95.003906 27.011719 C 92.085938 27.011719 90.074219 25.695312 89.953125 23.152344 L 93.011719 23.152344 C 93.273438 24.1875 94.007812 24.714844 95.265625 24.714844 C 96.699219 24.714844 97.59375 23.886719 97.59375 22.363281 L 97.59375 20.976562 C 96.859375 21.90625 95.964844 22.570312 94.359375 22.570312 C 92.085938 22.570312 89.96875 21.484375 89.96875 17.484375 L 89.96875 11.464844 L 92.992188 11.464844 L 92.992188 17.097656 C 92.992188 19.046875 93.660156 20.011719 95.144531 20.011719 C 96.632812 20.011719 97.503906 18.90625 97.503906 16.886719 Z M 97.523438 11.464844 "/>
<path style=" stroke:none;fill-rule:nonzero;fill:rgb(0%,0%,0%);fill-opacity:1;" d="M 111.039062 11.464844 L 113.699219 11.464844 L 113.699219 22.554688 L 111.003906 22.554688 L 110.742188 20.992188 C 110.007812 21.921875 108.90625 22.660156 107.351562 22.660156 C 104.378906 22.675781 102.210938 20.5 102.210938 16.992188 C 102.210938 13.550781 104.378906 11.324219 107.332031 11.324219 C 108.90625 11.324219 110.027344 11.992188 110.726562 12.9375 Z M 110.726562 17.027344 C 110.726562 15.132812 109.695312 13.816406 108.03125 13.816406 C 106.371094 13.816406 105.320312 15.132812 105.320312 17.027344 C 105.320312 18.90625 106.371094 20.203125 108.03125 20.203125 C 109.695312 20.203125 110.726562 18.90625 110.726562 17.027344 Z M 110.726562 17.027344 "/>
<path style=" stroke:none;fill-rule:nonzero;fill:rgb(98.039216%,27.843137%,18.431373%);fill-opacity:1;" d="M 9.003906 8.832031 C 9.285156 8.882812 9.601562 8.902344 9.984375 8.902344 C 10.054688 8.902344 10.125 8.902344 10.195312 8.902344 C 13.917969 8.796875 18.625 6.410156 17.890625 5.65625 C 17.765625 5.53125 17.554688 5.636719 16.996094 5.917969 C 14.96875 6.953125 11.785156 7.847656 9.96875 7.53125 C 9.878906 7.515625 9.757812 7.480469 9.6875 7.445312 C 9.546875 7.394531 9.390625 7.304688 9.320312 7.199219 C 9.25 7.113281 9.214844 6.988281 9.285156 6.832031 C 9.425781 6.480469 10.054688 5.988281 11.679688 5.269531 C 11.644531 5.285156 11.574219 5.304688 11.542969 5.320312 L 11.453125 5.355469 C 11.347656 5.390625 11.3125 5.410156 11.226562 5.445312 C 11.140625 5.480469 11.105469 5.496094 11 5.53125 C 10.894531 5.566406 10.859375 5.601562 10.753906 5.636719 C 10.648438 5.671875 10.613281 5.707031 10.507812 5.761719 C 10.421875 5.796875 10.335938 5.847656 10.230469 5.902344 C 10.160156 5.9375 10.105469 5.972656 10.039062 6.007812 C 10.019531 6.007812 10.003906 6.023438 9.984375 6.042969 C 9.707031 6.199219 8.96875 6.621094 8.445312 7.148438 C 8.324219 7.289062 8.21875 7.410156 8.148438 7.53125 C 8.027344 7.726562 7.972656 7.902344 7.972656 8.058594 C 7.992188 8.445312 8.339844 8.707031 9.003906 8.832031 Z M 9.003906 8.832031 "/>
<path style=" stroke:none;fill-rule:nonzero;fill:rgb(98.039216%,27.843137%,18.431373%);fill-opacity:1;" d="M 6.765625 11.902344 C 7.238281 12.078125 7.800781 12.164062 8.410156 12.199219 C 9.039062 12.234375 9.738281 12.199219 10.472656 12.128906 C 15.335938 11.585938 21.769531 8.761719 21.160156 7.324219 C 21.070312 7.128906 20.878906 7.234375 20.460938 7.480469 C 16.945312 9.515625 11.628906 10.867188 8.359375 10.515625 C 8.203125 10.5 7.992188 10.464844 7.746094 10.394531 C 7.464844 10.324219 7.167969 10.21875 6.941406 10.042969 C 6.679688 9.847656 6.523438 9.550781 6.664062 9.128906 C 6.714844 8.9375 6.835938 8.726562 7.011719 8.480469 L 6.960938 8.535156 C 6.714844 8.847656 6.59375 9.007812 6.453125 9.234375 C 6.3125 9.445312 6.191406 9.621094 5.996094 9.972656 C 5.894531 10.164062 5.664062 10.605469 5.789062 11.023438 C 5.839844 11.21875 5.964844 11.410156 6.207031 11.585938 C 6.363281 11.726562 6.539062 11.816406 6.765625 11.902344 Z M 6.765625 11.902344 "/>
<path style=" stroke:none;fill-rule:nonzero;fill:rgb(98.039216%,27.843137%,18.431373%);fill-opacity:1;" d="M 5.367188 15.21875 C 5.5625 15.34375 5.769531 15.464844 6.015625 15.554688 C 6.835938 15.886719 7.902344 16.007812 9.09375 15.992188 C 9.914062 15.972656 10.789062 15.886719 11.699219 15.746094 C 17.277344 14.867188 23.921875 11.867188 23.675781 10.042969 C 23.660156 9.988281 23.605469 9.9375 23.570312 9.882812 C 23.449219 9.902344 23.433594 9.902344 23.03125 10.164062 C 19.445312 12.394531 12.398438 14.480469 7.589844 14.078125 C 7.554688 14.078125 7.535156 14.078125 7.5 14.078125 C 6.960938 14.007812 6.503906 13.902344 6.15625 13.78125 C 5.597656 13.570312 5.246094 13.304688 5.125 12.9375 C 5.035156 12.726562 5.035156 12.464844 5.089844 12.183594 C 5.054688 12.339844 5 12.515625 4.949219 12.710938 C 4.914062 12.902344 4.859375 13.078125 4.828125 13.238281 L 4.722656 13.921875 C 4.703125 14.167969 4.6875 14.585938 5.089844 14.992188 C 5.160156 15.0625 5.261719 15.148438 5.367188 15.21875 Z M 5.367188 15.21875 "/>
<path style=" stroke:none;fill-rule:nonzero;fill:rgb(98.039216%,27.843137%,18.431373%);fill-opacity:1;" d="M 24.988281 13.410156 C 18.992188 16.570312 13.5 18.078125 8.65625 17.90625 C 8.289062 17.886719 7.921875 17.871094 7.554688 17.835938 C 7.292969 17.800781 7.066406 17.765625 6.835938 17.710938 C 6.101562 17.570312 5.527344 17.34375 5.160156 16.992188 C 4.949219 16.78125 4.792969 16.519531 4.738281 16.203125 L 4.792969 16.640625 C 4.828125 16.851562 4.878906 17.097656 4.929688 17.34375 C 4.984375 17.570312 5.035156 17.78125 5.089844 17.972656 C 5.089844 17.972656 5.089844 17.992188 5.089844 17.992188 C 5.089844 18.007812 5.089844 18.007812 5.089844 18.027344 C 5.140625 18.167969 5.226562 18.34375 5.316406 18.464844 C 5.472656 18.695312 5.683594 18.886719 5.929688 19.046875 C 6.277344 19.273438 6.679688 19.429688 7.152344 19.554688 C 8.007812 19.765625 9.058594 19.835938 10.230469 19.765625 C 11.070312 19.710938 11.960938 19.605469 12.871094 19.429688 C 18.449219 18.414062 24.953125 15.464844 25.128906 13.585938 C 25.128906 13.550781 25.128906 13.5 25.128906 13.464844 C 25.074219 13.445312 25.023438 13.429688 24.988281 13.410156 Z M 24.988281 13.410156 "/>
<path style=" stroke:none;fill-rule:nonzero;fill:rgb(98.039216%,27.843137%,18.431373%);fill-opacity:1;" d="M 17.398438 20.34375 C 16.804688 20.5 16.210938 20.640625 15.597656 20.765625 C 13.796875 21.132812 12.011719 21.363281 10.40625 21.378906 C 9.773438 21.394531 9.179688 21.378906 8.621094 21.328125 C 8.585938 21.328125 8.570312 21.328125 8.535156 21.308594 C 7.640625 21.1875 7.082031 21.027344 6.699219 20.816406 C 6.363281 20.640625 6.136719 20.414062 5.964844 20.152344 L 6.15625 20.484375 C 6.277344 20.675781 6.417969 20.886719 6.574219 21.097656 C 6.714844 21.308594 6.871094 21.519531 7.011719 21.695312 C 7.292969 21.976562 7.675781 22.203125 8.132812 22.363281 C 8.550781 22.503906 9.023438 22.605469 9.546875 22.660156 C 10.371094 22.746094 11.3125 22.730469 12.328125 22.625 C 13.078125 22.554688 13.882812 22.433594 14.6875 22.257812 C 19.425781 21.308594 24.585938 19.046875 25.164062 17.21875 C 25.179688 17.167969 25.164062 17.097656 25.164062 17.042969 C 23.222656 18.414062 20.371094 19.570312 17.398438 20.34375 Z M 17.398438 20.34375 "/>
<path style=" stroke:none;fill-rule:nonzero;fill:rgb(98.039216%,27.843137%,18.431373%);fill-opacity:1;" d="M 18.011719 22.976562 C 17.625 23.082031 17.242188 23.1875 16.839844 23.273438 C 15.597656 23.574219 14.285156 23.78125 12.992188 23.886719 C 12.414062 23.921875 11.820312 23.941406 11.261719 23.921875 C 11 23.921875 10.753906 23.90625 10.507812 23.886719 C 10.089844 23.835938 9.773438 23.765625 9.511719 23.695312 C 9.109375 23.589844 8.847656 23.449219 8.535156 23.238281 C 8.707031 23.363281 8.917969 23.519531 9.109375 23.660156 C 9.304688 23.800781 9.53125 23.941406 9.707031 24.0625 L 10.105469 24.292969 C 10.441406 24.449219 10.875 24.574219 11.367188 24.644531 C 11.804688 24.695312 12.277344 24.730469 12.800781 24.714844 C 13.480469 24.695312 14.234375 24.625 15.019531 24.503906 C 15.5625 24.414062 16.121094 24.308594 16.664062 24.1875 C 19.726562 23.46875 22.785156 22.132812 23.730469 20.730469 C 23.746094 20.710938 23.746094 20.695312 23.765625 20.675781 L 23.957031 20.378906 C 23.957031 20.378906 23.9375 20.394531 23.9375 20.394531 C 23.433594 20.992188 21 22.152344 18.011719 22.976562 Z M 18.011719 22.976562 "/>
<path style=" stroke:none;fill-rule:nonzero;fill:rgb(98.039216%,27.843137%,18.431373%);fill-opacity:1;" d="M 27.804688 15.289062 L 27.769531 15.851562 C 27.734375 16.308594 27.679688 16.761719 27.613281 17.203125 L 27.542969 17.589844 C 27.453125 18.007812 27.347656 18.414062 27.226562 18.835938 L 27.121094 19.132812 C 26.964844 19.625 26.773438 20.082031 26.542969 20.554688 C 25.6875 22.363281 24.410156 23.957031 22.835938 25.167969 C 22.277344 25.609375 21.683594 26.011719 21.054688 26.34375 C 21.054688 26.34375 21.035156 26.363281 21.019531 26.363281 C 20.878906 26.449219 20.722656 26.519531 20.5625 26.589844 C 20.285156 26.730469 19.988281 26.871094 19.691406 26.976562 L 19.515625 27.046875 C 19.058594 27.222656 18.605469 27.363281 18.152344 27.484375 L 18.132812 27.484375 C 18.046875 27.503906 17.957031 27.519531 17.871094 27.554688 C 17.730469 27.589844 17.574219 27.625 17.433594 27.644531 C 17.15625 27.695312 16.875 27.75 16.578125 27.785156 L 16.453125 27.800781 C 16.175781 27.835938 15.894531 27.855469 15.597656 27.871094 C 15.457031 27.871094 15.300781 27.890625 15.144531 27.890625 C 15.074219 27.890625 14.984375 27.890625 14.917969 27.890625 C 14.390625 27.890625 13.867188 27.855469 13.359375 27.800781 L 13.238281 27.785156 C 12.957031 27.75 12.695312 27.695312 12.414062 27.644531 C 12.257812 27.609375 12.117188 27.574219 11.960938 27.539062 C 11.910156 27.519531 11.839844 27.503906 11.785156 27.503906 L 11.609375 27.449219 C 11.15625 27.328125 10.71875 27.1875 10.300781 27.03125 L 10.160156 26.976562 L 10.074219 26.941406 C 9.949219 26.890625 9.828125 26.835938 9.707031 26.785156 C 9.390625 26.644531 9.074219 26.484375 8.777344 26.328125 C 8.148438 25.976562 7.554688 25.589844 6.996094 25.152344 C 5.4375 23.941406 4.179688 22.363281 3.304688 20.570312 L 3.164062 20.289062 C 3.007812 19.921875 2.851562 19.570312 2.726562 19.183594 L 2.621094 18.800781 C 2.519531 18.449219 2.414062 18.078125 2.34375 17.710938 L 2.34375 17.695312 C 2.308594 17.535156 2.273438 17.378906 2.253906 17.203125 L 2.253906 17.167969 C 2.1875 16.78125 2.152344 16.394531 2.117188 16.007812 L 2.097656 15.675781 L 2.046875 15.289062 L 0 15.429688 C 0 15.554688 0 15.675781 0.015625 15.796875 L 0.0351562 16.167969 C 0.0351562 16.273438 0.0507812 16.378906 0.0703125 16.464844 C 0.105469 16.746094 0.121094 17.027344 0.175781 17.308594 C 0.175781 17.34375 0.191406 17.378906 0.191406 17.429688 L 0.351562 18.21875 C 0.351562 18.253906 0.367188 18.289062 0.367188 18.324219 C 0.4375 18.605469 0.507812 18.886719 0.578125 19.148438 C 0.578125 19.183594 0.59375 19.21875 0.613281 19.238281 L 0.839844 19.941406 C 0.855469 19.992188 0.875 20.0625 0.910156 20.132812 C 0.996094 20.394531 1.101562 20.660156 1.222656 20.921875 C 1.242188 20.976562 1.257812 21.011719 1.277344 21.0625 L 1.644531 21.835938 C 1.644531 21.835938 1.660156 21.851562 1.660156 21.851562 C 1.785156 22.097656 1.921875 22.34375 2.0625 22.589844 C 2.097656 22.640625 2.132812 22.710938 2.167969 22.765625 L 2.464844 23.238281 C 2.519531 23.308594 2.554688 23.398438 2.605469 23.46875 C 2.761719 23.695312 2.9375 23.921875 3.09375 24.152344 C 3.148438 24.222656 3.199219 24.273438 3.253906 24.34375 L 3.636719 24.800781 C 3.671875 24.835938 3.726562 24.886719 3.757812 24.941406 C 3.953125 25.152344 4.144531 25.363281 4.335938 25.554688 C 4.425781 25.644531 4.527344 25.75 4.617188 25.835938 C 4.773438 25.976562 4.929688 26.117188 5.070312 26.257812 C 5.28125 26.449219 5.492188 26.625 5.71875 26.800781 C 5.789062 26.871094 5.875 26.925781 5.964844 26.996094 L 6.3125 27.257812 C 6.398438 27.308594 6.46875 27.363281 6.558594 27.414062 C 6.699219 27.519531 6.855469 27.609375 6.996094 27.695312 C 7.082031 27.75 7.167969 27.820312 7.273438 27.871094 C 7.328125 27.90625 7.378906 27.941406 7.433594 27.960938 L 7.992188 28.277344 C 8.042969 28.3125 8.113281 28.347656 8.167969 28.363281 C 8.410156 28.484375 8.671875 28.609375 8.9375 28.730469 C 8.988281 28.75 9.039062 28.785156 9.09375 28.800781 L 9.707031 29.046875 L 9.773438 29.066406 C 9.808594 29.082031 9.863281 29.101562 9.898438 29.101562 C 9.984375 29.136719 10.074219 29.171875 10.160156 29.1875 C 10.335938 29.242188 10.507812 29.3125 10.703125 29.363281 C 10.789062 29.398438 10.894531 29.417969 10.980469 29.433594 L 11.542969 29.574219 C 11.59375 29.589844 11.644531 29.589844 11.699219 29.609375 C 11.785156 29.625 11.875 29.644531 11.976562 29.660156 C 12.117188 29.695312 12.277344 29.714844 12.433594 29.75 C 12.46875 29.75 12.503906 29.765625 12.539062 29.765625 C 12.589844 29.785156 12.660156 29.785156 12.730469 29.800781 L 13.148438 29.855469 C 13.289062 29.871094 13.414062 29.890625 13.550781 29.890625 C 13.832031 29.90625 14.113281 29.925781 14.390625 29.941406 C 14.566406 29.941406 14.742188 29.960938 14.898438 29.960938 C 14.96875 29.960938 15.054688 29.960938 15.125 29.960938 C 15.214844 29.960938 15.316406 29.960938 15.40625 29.960938 C 15.457031 29.960938 15.527344 29.960938 15.582031 29.960938 C 15.808594 29.960938 16.035156 29.941406 16.261719 29.925781 C 16.402344 29.90625 16.542969 29.90625 16.683594 29.871094 L 16.890625 29.855469 C 17.03125 29.835938 17.15625 29.820312 17.277344 29.800781 C 17.3125 29.800781 17.347656 29.785156 17.398438 29.785156 C 17.539062 29.765625 17.695312 29.730469 17.835938 29.695312 C 17.921875 29.679688 18.027344 29.660156 18.117188 29.644531 C 18.167969 29.625 18.222656 29.625 18.273438 29.609375 L 18.832031 29.46875 C 18.921875 29.453125 19.027344 29.417969 19.113281 29.398438 C 19.394531 29.3125 19.65625 29.222656 19.917969 29.136719 C 19.953125 29.117188 19.988281 29.117188 20.039062 29.101562 L 20.5625 28.890625 L 20.722656 28.820312 C 20.773438 28.800781 20.828125 28.765625 20.878906 28.75 C 20.914062 28.730469 20.964844 28.714844 21.019531 28.695312 C 21.230469 28.609375 21.4375 28.503906 21.648438 28.398438 C 21.699219 28.363281 21.769531 28.328125 21.824219 28.3125 L 22.367188 28.011719 C 22.433594 27.976562 22.488281 27.941406 22.558594 27.90625 C 22.644531 27.855469 22.75 27.800781 22.835938 27.730469 C 22.976562 27.644531 23.136719 27.539062 23.273438 27.449219 C 23.363281 27.398438 23.449219 27.328125 23.535156 27.273438 L 23.851562 27.046875 C 23.9375 26.976562 24.027344 26.925781 24.113281 26.855469 C 24.339844 26.679688 24.550781 26.503906 24.761719 26.308594 C 24.902344 26.203125 25.023438 26.082031 25.144531 25.960938 C 25.269531 25.835938 25.390625 25.714844 25.511719 25.589844 C 25.707031 25.398438 25.898438 25.1875 26.089844 24.976562 C 26.195312 24.855469 26.316406 24.714844 26.421875 24.589844 C 26.527344 24.449219 26.632812 24.328125 26.738281 24.1875 C 26.910156 23.957031 27.070312 23.730469 27.226562 23.503906 C 27.3125 23.378906 27.402344 23.238281 27.488281 23.117188 C 27.59375 22.957031 27.699219 22.800781 27.785156 22.625 C 27.925781 22.378906 28.066406 22.132812 28.207031 21.886719 C 28.222656 21.835938 28.257812 21.800781 28.277344 21.746094 L 28.554688 21.167969 C 28.589844 21.097656 28.625 21.027344 28.644531 20.957031 C 28.746094 20.695312 28.851562 20.429688 28.957031 20.167969 C 28.992188 20.082031 29.027344 19.976562 29.0625 19.871094 L 29.203125 19.414062 C 29.21875 19.324219 29.253906 19.253906 29.273438 19.167969 C 29.34375 18.886719 29.414062 18.625 29.484375 18.34375 C 29.5 18.273438 29.515625 18.203125 29.515625 18.132812 L 29.605469 17.660156 C 29.621094 17.535156 29.640625 17.429688 29.65625 17.324219 C 29.691406 17.042969 29.726562 16.761719 29.761719 16.484375 C 29.761719 16.394531 29.78125 16.308594 29.78125 16.238281 L 29.796875 15.972656 L 29.796875 15.957031 C 29.816406 15.78125 29.816406 15.621094 29.816406 15.449219 Z M 27.804688 15.289062 "/>
<path style=" stroke:none;fill-rule:nonzero;fill:rgb(98.039216%,27.843137%,18.431373%);fill-opacity:1;" d="M 14.410156 0.0234375 L 15.441406 0.0234375 L 15.441406 2.09375 L 14.410156 2.09375 Z M 14.410156 0.0234375 "/>
<path style=" stroke:none;fill-rule:nonzero;fill:rgb(98.039216%,27.843137%,18.431373%);fill-opacity:1;" d="M 12.550781 0.199219 L 13.574219 0.0703125 L 13.835938 2.125 L 12.808594 2.253906 Z M 12.550781 0.199219 "/>
<path style=" stroke:none;fill-rule:nonzero;fill:rgb(98.039216%,27.843137%,18.431373%);fill-opacity:1;" d="M 10.722656 0.621094 L 11.722656 0.363281 L 12.238281 2.367188 L 11.238281 2.625 Z M 10.722656 0.621094 "/>
<path style=" stroke:none;fill-rule:nonzero;fill:rgb(98.039216%,27.843137%,18.431373%);fill-opacity:1;" d="M 8.960938 1.265625 L 9.921875 0.882812 L 10.679688 2.808594 L 9.722656 3.191406 Z M 8.960938 1.265625 "/>
<path style=" stroke:none;fill-rule:nonzero;fill:rgb(98.039216%,27.843137%,18.431373%);fill-opacity:1;" d="M 7.277344 2.121094 L 8.183594 1.625 L 9.175781 3.4375 L 8.273438 3.9375 Z M 7.277344 2.121094 "/>
<path style=" stroke:none;fill-rule:nonzero;fill:rgb(98.039216%,27.843137%,18.431373%);fill-opacity:1;" d="M 5.738281 3.191406 L 6.574219 2.582031 L 7.789062 4.257812 L 6.953125 4.867188 Z M 5.738281 3.191406 "/>
<path style=" stroke:none;fill-rule:nonzero;fill:rgb(98.039216%,27.843137%,18.431373%);fill-opacity:1;" d="M 4.328125 4.433594 L 5.082031 3.726562 L 6.492188 5.234375 L 5.742188 5.945312 Z M 4.328125 4.433594 "/>
<path style=" stroke:none;fill-rule:nonzero;fill:rgb(98.039216%,27.843137%,18.431373%);fill-opacity:1;" d="M 3.101562 5.847656 L 3.757812 5.050781 L 5.347656 6.371094 L 4.691406 7.167969 Z M 3.101562 5.847656 "/>
<path style=" stroke:none;fill-rule:nonzero;fill:rgb(98.039216%,27.843137%,18.431373%);fill-opacity:1;" d="M 2.050781 7.414062 L 2.601562 6.542969 L 4.34375 7.652344 L 3.792969 8.527344 Z M 2.050781 7.414062 "/>
<path style=" stroke:none;fill-rule:nonzero;fill:rgb(98.039216%,27.843137%,18.431373%);fill-opacity:1;" d="M 1.199219 9.09375 L 1.640625 8.15625 L 3.507812 9.035156 L 3.066406 9.972656 Z M 1.199219 9.09375 "/>
<path style=" stroke:none;fill-rule:nonzero;fill:rgb(98.039216%,27.843137%,18.431373%);fill-opacity:1;" d="M 0.570312 10.871094 L 0.890625 9.886719 L 2.855469 10.527344 L 2.535156 11.511719 Z M 0.570312 10.871094 "/>
<path style=" stroke:none;fill-rule:nonzero;fill:rgb(98.039216%,27.843137%,18.431373%);fill-opacity:1;" d="M 0.179688 12.695312 L 0.371094 11.679688 L 2.398438 12.066406 L 2.207031 13.085938 Z M 0.179688 12.695312 "/>
<path style=" stroke:none;fill-rule:nonzero;fill:rgb(98.039216%,27.843137%,18.431373%);fill-opacity:1;" d="M 0.0078125 14.578125 L 0.0703125 13.542969 L 2.128906 13.675781 L 2.066406 14.707031 Z M 0.0078125 14.578125 "/>
<path style=" stroke:none;fill-rule:nonzero;fill:rgb(98.039216%,27.843137%,18.431373%);fill-opacity:1;" d="M 2.117188 16.324219 L 0.0703125 16.449219 L 0.0507812 16.148438 L 0 15.429688 L 0.015625 15.429688 L 2.0625 15.289062 L 2.082031 15.65625 L 2.097656 15.992188 Z M 2.117188 16.324219 "/>
<path style=" stroke:none;fill-rule:nonzero;fill:rgb(98.039216%,27.843137%,18.431373%);fill-opacity:1;" d="M 0.167969 17.300781 L 2.195312 16.914062 L 2.386719 17.929688 L 0.359375 18.316406 Z M 0.167969 17.300781 "/>
<path style=" stroke:none;fill-rule:nonzero;fill:rgb(98.039216%,27.843137%,18.431373%);fill-opacity:1;" d="M 0.574219 19.144531 L 2.539062 18.503906 L 2.859375 19.488281 L 0.894531 20.128906 Z M 0.574219 19.144531 "/>
<path style=" stroke:none;fill-rule:nonzero;fill:rgb(98.039216%,27.843137%,18.431373%);fill-opacity:1;" d="M 1.207031 20.902344 L 3.074219 20.019531 L 3.511719 20.957031 L 1.644531 21.839844 Z M 1.207031 20.902344 "/>
<path style=" stroke:none;fill-rule:nonzero;fill:rgb(98.039216%,27.843137%,18.431373%);fill-opacity:1;" d="M 2.054688 22.589844 L 3.796875 21.480469 L 4.347656 22.355469 L 2.605469 23.464844 Z M 2.054688 22.589844 "/>
<path style=" stroke:none;fill-rule:nonzero;fill:rgb(98.039216%,27.843137%,18.431373%);fill-opacity:1;" d="M 3.101562 24.132812 L 4.691406 22.816406 L 5.347656 23.613281 L 3.757812 24.933594 Z M 3.101562 24.132812 "/>
<path style=" stroke:none;fill-rule:nonzero;fill:rgb(98.039216%,27.843137%,18.431373%);fill-opacity:1;" d="M 4.335938 25.558594 L 5.746094 24.046875 L 6.5 24.757812 L 5.085938 26.265625 Z M 4.335938 25.558594 "/>
<path style=" stroke:none;fill-rule:nonzero;fill:rgb(98.039216%,27.843137%,18.431373%);fill-opacity:1;" d="M 5.746094 26.808594 L 6.957031 25.132812 L 7.792969 25.742188 L 6.578125 27.417969 Z M 5.746094 26.808594 "/>
<path style=" stroke:none;fill-rule:nonzero;fill:rgb(98.039216%,27.843137%,18.431373%);fill-opacity:1;" d="M 9.179688 26.554688 L 8.183594 28.363281 L 8.183594 28.378906 L 8.007812 28.277344 L 7.449219 27.960938 L 7.292969 27.871094 L 8.269531 26.0625 L 8.796875 26.34375 Z M 9.179688 26.554688 "/>
<path style=" stroke:none;fill-rule:nonzero;fill:rgb(98.039216%,27.843137%,18.431373%);fill-opacity:1;" d="M 10.667969 27.1875 L 10.175781 28.433594 L 9.914062 29.101562 L 9.914062 29.117188 L 9.792969 29.066406 L 9.722656 29.046875 L 9.128906 28.800781 L 8.953125 28.730469 L 9.707031 26.820312 L 9.722656 26.820312 L 10.089844 26.960938 L 10.175781 26.996094 L 10.316406 27.046875 Z M 10.667969 27.1875 "/>
<path style=" stroke:none;fill-rule:nonzero;fill:rgb(98.039216%,27.843137%,18.431373%);fill-opacity:1;" d="M 12.222656 27.625 L 11.996094 28.554688 L 11.714844 29.625 L 11.558594 29.589844 L 11 29.453125 L 10.71875 29.382812 L 10.71875 29.363281 L 11.226562 27.378906 L 11.628906 27.484375 L 11.804688 27.519531 L 11.996094 27.574219 Z M 12.222656 27.625 "/>
<path style=" stroke:none;fill-rule:nonzero;fill:rgb(98.039216%,27.843137%,18.431373%);fill-opacity:1;" d="M 13.832031 27.871094 L 13.570312 29.90625 L 13.570312 29.925781 L 13.167969 29.871094 L 12.730469 29.820312 L 12.554688 29.785156 L 12.800781 27.75 L 13.253906 27.800781 L 13.378906 27.820312 Z M 13.832031 27.871094 "/>
<path style=" stroke:none;fill-rule:nonzero;fill:rgb(98.039216%,27.843137%,18.431373%);fill-opacity:1;" d="M 14.410156 27.90625 L 15.441406 27.90625 L 15.441406 29.976562 L 14.410156 29.976562 Z M 14.410156 27.90625 "/>
<path style=" stroke:none;fill-rule:nonzero;fill:rgb(98.039216%,27.843137%,18.431373%);fill-opacity:1;" d="M 17.3125 29.785156 L 16.925781 29.835938 L 16.699219 29.871094 L 16.28125 29.925781 L 16.28125 29.90625 L 16.035156 27.871094 L 16.453125 27.820312 L 16.578125 27.800781 L 17.050781 27.75 Z M 17.3125 29.785156 "/>
<path style=" stroke:none;fill-rule:nonzero;fill:rgb(98.039216%,27.843137%,18.431373%);fill-opacity:1;" d="M 19.128906 29.382812 L 18.851562 29.453125 L 18.292969 29.589844 L 18.132812 29.625 L 17.871094 28.554688 L 17.625 27.625 L 17.871094 27.574219 L 18.132812 27.503906 L 18.152344 27.503906 L 18.625 27.378906 L 19.128906 29.363281 Z M 19.128906 29.382812 "/>
<path style=" stroke:none;fill-rule:nonzero;fill:rgb(98.039216%,27.843137%,18.431373%);fill-opacity:1;" d="M 20.898438 28.730469 L 20.738281 28.800781 L 20.582031 28.855469 L 20.058594 29.066406 L 19.953125 29.117188 L 19.933594 29.101562 L 19.183594 27.1875 L 19.515625 27.066406 L 19.707031 26.996094 L 20.144531 26.820312 L 20.582031 27.90625 Z M 20.898438 28.730469 "/>
<path style=" stroke:none;fill-rule:nonzero;fill:rgb(98.039216%,27.843137%,18.431373%);fill-opacity:1;" d="M 22.574219 27.871094 L 22.367188 27.976562 L 21.664062 28.378906 L 21.664062 28.363281 L 21.035156 27.203125 L 20.667969 26.554688 L 21.035156 26.363281 L 21.054688 26.34375 L 21.578125 26.0625 L 22.558594 27.871094 Z M 22.574219 27.871094 "/>
<path style=" stroke:none;fill-rule:nonzero;fill:rgb(98.039216%,27.843137%,18.431373%);fill-opacity:1;" d="M 22.066406 25.746094 L 22.898438 25.136719 L 24.113281 26.8125 L 23.277344 27.417969 Z M 22.066406 25.746094 "/>
<path style=" stroke:none;fill-rule:nonzero;fill:rgb(98.039216%,27.843137%,18.431373%);fill-opacity:1;" d="M 23.359375 24.765625 L 24.113281 24.058594 L 25.527344 25.566406 L 24.773438 26.277344 Z M 23.359375 24.765625 "/>
<path style=" stroke:none;fill-rule:nonzero;fill:rgb(98.039216%,27.843137%,18.431373%);fill-opacity:1;" d="M 24.515625 23.621094 L 25.175781 22.820312 L 26.765625 24.140625 L 26.105469 24.9375 Z M 24.515625 23.621094 "/>
<path style=" stroke:none;fill-rule:nonzero;fill:rgb(98.039216%,27.843137%,18.431373%);fill-opacity:1;" d="M 25.507812 22.351562 L 26.058594 21.476562 L 27.800781 22.585938 L 27.25 23.460938 Z M 25.507812 22.351562 "/>
<path style=" stroke:none;fill-rule:nonzero;fill:rgb(98.039216%,27.843137%,18.431373%);fill-opacity:1;" d="M 26.347656 20.964844 L 26.789062 20.027344 L 28.65625 20.910156 L 28.214844 21.847656 Z M 26.347656 20.964844 "/>
<path style=" stroke:none;fill-rule:nonzero;fill:rgb(98.039216%,27.843137%,18.431373%);fill-opacity:1;" d="M 27 19.476562 L 27.320312 18.492188 L 29.28125 19.132812 L 28.964844 20.117188 Z M 27 19.476562 "/>
<path style=" stroke:none;fill-rule:nonzero;fill:rgb(98.039216%,27.843137%,18.431373%);fill-opacity:1;" d="M 27.460938 17.917969 L 27.65625 16.902344 L 29.679688 17.289062 L 29.488281 18.308594 Z M 27.460938 17.917969 "/>
<path style=" stroke:none;fill-rule:nonzero;fill:rgb(98.039216%,27.843137%,18.431373%);fill-opacity:1;" d="M 29.851562 15.429688 L 29.816406 15.9375 L 29.796875 16.449219 L 29.78125 16.449219 L 27.734375 16.324219 L 27.769531 15.851562 L 27.804688 15.289062 L 29.832031 15.429688 Z M 29.851562 15.429688 "/>
<path style=" stroke:none;fill-rule:nonzero;fill:rgb(98.039216%,27.843137%,18.431373%);fill-opacity:1;" d="M 27.738281 13.671875 L 29.796875 13.539062 L 29.863281 14.574219 L 27.800781 14.703125 Z M 27.738281 13.671875 "/>
<path style=" stroke:none;fill-rule:nonzero;fill:rgb(98.039216%,27.843137%,18.431373%);fill-opacity:1;" d="M 27.464844 12.070312 L 29.488281 11.683594 L 29.683594 12.699219 L 27.65625 13.089844 Z M 27.464844 12.070312 "/>
<path style=" stroke:none;fill-rule:nonzero;fill:rgb(98.039216%,27.843137%,18.431373%);fill-opacity:1;" d="M 27 10.53125 L 28.960938 9.890625 L 29.28125 10.875 L 27.316406 11.515625 Z M 27 10.53125 "/>
<path style=" stroke:none;fill-rule:nonzero;fill:rgb(98.039216%,27.843137%,18.431373%);fill-opacity:1;" d="M 26.355469 9.039062 L 28.222656 8.15625 L 28.660156 9.09375 L 26.792969 9.972656 Z M 26.355469 9.039062 "/>
<path style=" stroke:none;fill-rule:nonzero;fill:rgb(98.039216%,27.843137%,18.431373%);fill-opacity:1;" d="M 25.515625 7.636719 L 27.257812 6.527344 L 27.8125 7.402344 L 26.070312 8.511719 Z M 25.515625 7.636719 "/>
<path style=" stroke:none;fill-rule:nonzero;fill:rgb(98.039216%,27.843137%,18.431373%);fill-opacity:1;" d="M 24.503906 6.363281 L 26.09375 5.042969 L 26.753906 5.839844 L 25.164062 7.160156 Z M 24.503906 6.363281 "/>
<path style=" stroke:none;fill-rule:nonzero;fill:rgb(98.039216%,27.843137%,18.431373%);fill-opacity:1;" d="M 23.367188 5.234375 L 24.777344 3.722656 L 25.53125 4.433594 L 24.117188 5.941406 Z M 23.367188 5.234375 "/>
<path style=" stroke:none;fill-rule:nonzero;fill:rgb(98.039216%,27.843137%,18.431373%);fill-opacity:1;" d="M 22.074219 4.246094 L 23.285156 2.570312 L 24.121094 3.179688 L 22.90625 4.855469 Z M 22.074219 4.246094 "/>
<path style=" stroke:none;fill-rule:nonzero;fill:rgb(98.039216%,27.843137%,18.431373%);fill-opacity:1;" d="M 20.679688 3.433594 L 21.675781 1.617188 L 22.578125 2.117188 L 21.585938 3.929688 Z M 20.679688 3.433594 "/>
<path style=" stroke:none;fill-rule:nonzero;fill:rgb(98.039216%,27.843137%,18.431373%);fill-opacity:1;" d="M 19.179688 2.808594 L 19.941406 0.882812 L 20.898438 1.261719 L 20.140625 3.1875 Z M 19.179688 2.808594 "/>
<path style=" stroke:none;fill-rule:nonzero;fill:rgb(98.039216%,27.843137%,18.431373%);fill-opacity:1;" d="M 17.621094 2.371094 L 18.132812 0.363281 L 19.132812 0.621094 L 18.617188 2.628906 Z M 17.621094 2.371094 "/>
<path style=" stroke:none;fill-rule:nonzero;fill:rgb(98.039216%,27.843137%,18.431373%);fill-opacity:1;" d="M 16.035156 2.132812 L 16.292969 0.078125 L 17.316406 0.207031 L 17.058594 2.261719 Z M 16.035156 2.132812 "/>
</g>
</svg>
